<svg xmlns="http://www.w3.org/2000/svg" viewBox="0 0 512 512" role="img" aria-label="ENIGMA Mobile Console">
  <defs>
    <linearGradient id="base" x1="0" y1="0" x2="1" y2="1">
      <stop offset="0" stop-color="#11252d"/>
      <stop offset="0.48" stop-color="#071117"/>
      <stop offset="1" stop-color="#050b10"/>
    </linearGradient>
    <linearGradient id="signal" x1="0" y1="1" x2="1" y2="0">
      <stop stop-color="#257f78"/>
      <stop offset="0.46" stop-color="#40c7b2"/>
      <stop offset="1" stop-color="#8be0d1"/>
    </linearGradient>
    <radialGradient id="glow">
      <stop stop-color="#40c7b2" stop-opacity=".21"/>
      <stop offset="1" stop-color="#40c7b2" stop-opacity="0"/>
    </radialGradient>
    <clipPath id="round">
      <rect width="512" height="512" rx="112"/>
    </clipPath>
  </defs>
  <g clip-path="url(#round)">
    <rect width="512" height="512" fill="url(#base)"/>
    <circle cx="256" cy="256" r="210" fill="url(#glow)"/>
    <path d="M64 165h384M64 256h384M64 347h384M165 64v384M256 64v384M347 64v384" stroke="#17343d" stroke-width="2" opacity=".65"/>
    <circle cx="256" cy="256" r="157" fill="none" stroke="#1d414a" stroke-width="3"/>
    <circle cx="256" cy="256" r="117" fill="none" stroke="#254d54" stroke-width="2"/>
    <path d="M256 91 284 228 421 256 284 284 256 421 228 284 91 256 228 228Z" fill="none" stroke="url(#signal)" stroke-width="7" stroke-linejoin="round"/>
    <path d="M256 141 275 237 371 256 275 275 256 371 237 275 141 256 237 237Z" fill="#0b171d" stroke="#40c7b2" stroke-width="4" opacity=".98"/>
    <circle cx="256" cy="256" r="29" fill="#40c7b2"/>
    <circle cx="256" cy="256" r="13" fill="#071117"/>
    <path d="M256 80v23M432 256h-23M256 432v-23M80 256h23" stroke="#8be0d1" stroke-width="6" stroke-linecap="round"/>
  </g>
</svg>

